<svg width="42" height="42" viewBox="0 0 42 42" fill="none" xmlns="http://www.w3.org/2000/svg">
<path d="M36.1981 4.98438H6.73899C6.03053 4.98438 5.45816 5.55675 5.45816 6.26521V35.7243C5.45816 36.4328 6.03053 37.0052 6.73899 37.0052H36.1981C36.9066 37.0052 37.4789 36.4328 37.4789 35.7243V6.26521C37.4789 5.55675 36.9066 4.98438 36.1981 4.98438ZM14.9563 32.2701H10.2052V16.9882H14.9563V32.2701ZM12.5828 14.8988C12.0381 14.8988 11.5057 14.7373 11.0529 14.4347C10.6 14.1321 10.247 13.702 10.0386 13.1988C9.83019 12.6957 9.77565 12.142 9.88191 11.6078C9.98817 11.0736 10.2504 10.5829 10.6356 10.1978C11.0207 9.81268 11.5114 9.5504 12.0455 9.44415C12.5797 9.33789 13.1334 9.39243 13.6366 9.60085C14.1398 9.80928 14.5699 10.1622 14.8725 10.6151C15.1751 11.068 15.3366 11.6004 15.3366 12.145C15.3326 13.666 14.0998 14.8988 12.5828 14.8988ZM32.7439 32.2701H27.9968V24.8373C27.9968 23.0641 27.9648 20.7866 25.5272 20.7866C23.0576 20.7866 22.6773 22.7159 22.6773 24.7092V32.2701H17.9343V16.9882H22.4892V19.0775H22.5533C23.1857 17.8767 24.7347 16.6079 27.0482 16.6079C31.8593 16.6079 32.7439 19.774 32.7439 23.8886V32.2701Z" fill="white"/>
</svg>
