<svg width="32" height="40" viewBox="0 0 32 40" fill="none" xmlns="http://www.w3.org/2000/svg">
<path d="M14.8885 38.8806C15.2129 39.1123 15.6015 39.2368 16.0001 39.2368C16.3987 39.2368 16.7874 39.1123 17.1118 38.8806C17.6945 38.4686 31.389 28.5805 31.3335 16.2371C31.3335 7.78273 24.4545 0.903809 16.0001 0.903809C7.54571 0.903809 0.666795 7.78272 0.666795 16.2276C0.611211 28.5805 14.3058 38.4686 14.8885 38.8806ZM16.0001 4.73714C22.3424 4.73714 27.5001 9.89489 27.5001 16.2467C27.5404 24.7529 19.0898 32.3908 16.0001 34.8959C12.9124 32.3889 4.45988 24.7491 4.50013 16.2371C4.50013 9.89489 9.65788 4.73714 16.0001 4.73714Z" fill="white"/>
</svg>
